# xmcd
#
# Track frame offsets:
#	150
#	10070
#	20177
#	29917
#	44947
#	52557
#	61062
#	71905
#	81837
#	94232
#
# Disc length: 1400 seconds
#
# Revision: 0
# Processed by: cddbd v1.5.2PL0 Copyright (c) Steve Scherf et al.
# Submitted via: EZCDAudioConverter 1.0.8.1
#
DISCID=8905760a
DTITLE=Various Artist - Bluegrass Hits
DYEAR=1997
DGENRE=Country
TTITLE0=C. Monroe - Wildwood Flower
TTITLE1=B. G. Oakie - Wonder (B. G. Oakie)
TTITLE2=B. G. Oakie - Carolina Mountin Home
TTITLE3=C. Monroe - Georga Mail
TTITLE4=Jim and Jessie - Black Mountin Rag
TTITLE5=Jim and Jessie - Me And My fiddle
TTITLE6=C. Story - Overlooked An Orchid
TTITLE7=C. Story - Mockingbird
TTITLE8=McPeak Brothers - Higher Than The Mountin
TTITLE9=McPeak Brothers - Cotton Fields
EXTD=
EXTT0=
EXTT1=
EXTT2=
EXTT3=
EXTT4=
EXTT5=
EXTT6=
EXTT7=
EXTT8=
EXTT9=
PLAYORDER=
